<?xml version="1.0" standalone="no"?>
<!DOCTYPE svg PUBLIC "-//W3C//DTD SVG 20010904//EN"
 "http://www.w3.org/TR/2001/REC-SVG-20010904/DTD/svg10.dtd">
<svg version="1.0" xmlns="http://www.w3.org/2000/svg"
 width="260.000000pt" height="260.000000pt" viewBox="0 0 260.000000 260.000000"
 preserveAspectRatio="xMidYMid meet">
<metadata>
Created by potrace 1.11, written by Peter Selinger 2001-2013
</metadata>
<g transform="translate(0.000000,260.000000) scale(0.100000,-0.100000)"
fill="#000000" stroke="none">
<path d="M1170 2584 c-14 -2 -56 -9 -95 -15 -103 -16 -247 -65 -355 -119 -355
-179 -600 -501 -686 -902 -25 -116 -25 -380 0 -496 113 -523 495 -905 1018
-1018 116 -25 380 -25 496 0 523 113 905 495 1018 1018 25 116 25 380 0 496
-56 260 -175 482 -355 663 -180 179 -405 300 -661 355 -71 15 -327 27 -380 18z
m212 -785 c175 -38 293 -156 329 -328 18 -88 6 -322 -20 -395 -57 -159 -144
-238 -306 -281 -45 -11 -114 -15 -287 -15 l-228 0 0 515 0 515 230 0 c132 0
251 -5 282 -11z"/>
<path d="M1010 1301 l0 -403 168 4 c165 3 170 4 227 33 71 36 125 102 152 184
14 43 18 87 18 191 0 163 -15 216 -81 289 -67 75 -118 90 -320 98 l-164 6 0
-402z"/>
</g>
</svg>
